<?xml version="1.0" encoding="utf-8"?>
<!-- Generator: Adobe Illustrator 28.3.0, SVG Export Plug-In . SVG Version: 6.00 Build 0)  -->
<svg version="1.1" id="Diseño" xmlns="http://www.w3.org/2000/svg" xmlns:xlink="http://www.w3.org/1999/xlink" x="0px" y="0px"
	 viewBox="0 0 700 335.5" style="enable-background:new 0 0 700 335.5;" xml:space="preserve">
<style type="text/css">
	.st0{fill:#F7052D;}
</style>
<path class="st0" d="M83,222L83,222l-57.2,0L0,333.5h29.3l9.7-41.9H54l26,41.9h32l-29.1-44.4c25.9-6.7,34.7-20.6,36.3-35.4
	C120.7,239,112.5,222,83,222L83,222z M90,255.4c-1.2,10.9-11.4,17.3-25.7,17.3H43.4l7.8-33.7h22.1C85,239,91.1,244.8,90,255.4
	L90,255.4z"/>
<polygon class="st0" points="138.6,333.5 168.4,333.5 187.2,251.6 194.1,222 164.7,222 "/>
<path class="st0" d="M413.1,215.8c0-11.4-7-16-14-16.2c-6.5-0.2-11.3,2.3-16.9,10.2l-66.1,93.9l-25.4-91.9
	c-2.6-9.3-8.4-12.4-13.7-12.3c-8,0-12.1,3.6-16.3,11.5l-58.2,122.5l32.5,0l39.4-84.5l24.6,84.5h27.2l59.5-84l-0.3,84h27.9
	L413.1,215.8L413.1,215.8L413.1,215.8z"/>
<path class="st0" d="M611.2,280.3c2.6-24.3,23.8-39,53.3-38.8c8.7,0.1,19.9,0.7,30.2,3.5l5.2-22.5c-8.3-2.1-22.6-3.7-32-3.7
	c-50.7,0-82.9,24.5-86.9,61c-3.5,32.4,18.3,55.6,65.3,55.6c9.5,0,17.7-0.8,29.3-2.8l5.7-24.5c-11.3,3.2-20.3,4.8-34.7,4.6
	C622.8,312.4,609.2,298.3,611.2,280.3L611.2,280.3L611.2,280.3z"/>
<path class="st0" d="M519.2,218.9c-4.5,0.4-9.3,2.5-14.2,9.5l-70.4,105.2h28.9l15.1-23.5l51.8-0.1l5.5,23.6h28.2l-27.2-100
	C533.4,221.4,526.4,218.3,519.2,218.9L519.2,218.9z M490.8,291.8l26.6-41.1l8.5,41.1H490.8z"/>
<path class="st0" d="M156.1,111.3c1.3,0,2.5-0.3,3.7-0.8c0.4-0.1,185.7-79.4,185.7-79.4s-54.1,114.5-54.2,114.7
	c-1,2-1.6,4.2-1.6,6.6c0,8.1,6.6,14.6,14.6,14.6c1.6,0,3-0.3,4.6-0.8L580.8,90l0,0l0,0l0.9-0.2l0,0c11.7-3.4,23.8-13.3,23.8-31.6
	s-14.8-32.9-33-32.9c-4.9,0-10.9,1.8-15,3.5c-13.8,5.9-218.5,93-218.5,93s24-70.2,34-96.7c3.4-9,4.5-12.3,4.5-14.5
	C377.5,4.7,372.8,0,366.9,0c-1.8,0-3.4,0.4-4.9,1.2c-0.4,0.1-208.8,94.6-208.8,94.6c-3.2,1.5-5.2,4.1-5.2,7.5
	C148,107.7,151.6,111.3,156.1,111.3L156.1,111.3z"/>
</svg>
